<svg xmlns="http://www.w3.org/2000/svg" width="15.251" height="15.373" viewBox="0 0 15.251 15.373"><defs><style>.a{fill:#fff;}</style></defs><path class="a" d="M93.24,7,86.618.284a.954.954,0,0,0-1.357,0,.975.975,0,0,0,0,1.371l5.947,6.032L85.26,13.719a.975.975,0,0,0,0,1.371.954.954,0,0,0,1.357,0l6.622-6.718A1,1,0,0,0,93.24,7Z" transform="translate(-78.26 0)"/><path class="a" d="M9.028,7,2.407.284a.954.954,0,0,0-1.357,0,.975.975,0,0,0,0,1.371L7,7.686,1.048,13.719a.975.975,0,0,0,0,1.371.954.954,0,0,0,1.357,0L9.027,8.372A1,1,0,0,0,9.028,7Z" transform="translate(-0.767 0)"/></svg>